<svg width="78" height="78" viewBox="0 0 78 78" fill="none" xmlns="http://www.w3.org/2000/svg">
<path d="M48.2869 65.0086V68.7136H55.6969V72.443H22.2788V68.7136H29.7132V65.0086H22.2788V57.5742H18.5738V72.443H11.1394V76.148H66.8606V72.443H59.4263V57.5742H55.6969V65.0086H48.2869Z" fill="#2F766B"/>
<path d="M51.9919 50.1389H55.6969V57.5733H51.9919V50.1389ZM51.9919 20.4258H55.6969V27.8602H51.9919V20.4258ZM48.2869 46.4339H51.9919V50.1389H48.2869V46.4339ZM44.5575 42.7289H48.2869V46.4339H44.5575V42.7289ZM40.8525 61.2783H48.2869V65.0077H40.8525V61.2783Z" fill="#2F766B"/>
<path d="M48.2869 35.2947V31.5654H51.9919V27.8604H25.9838V31.5654H29.7131V35.2947H33.4181V42.7291H37.1475V61.2785H40.8525V42.7291H44.5575V35.2947H48.2869ZM29.7131 61.2785H37.1475V65.0079H29.7131V61.2785Z" fill="#2F766B"/>
<path d="M29.7132 42.7294H33.4181V46.4344H29.7132V42.7294ZM25.9838 46.4344H29.7132V50.1394H25.9838V46.4344ZM22.2788 50.1394H25.9838V57.5738H22.2788V50.1394ZM22.2788 20.4263H25.9838V27.8607H22.2788V20.4263ZM22.2788 5.58191H55.6969V20.4263H59.4263V5.58191H66.8606V1.85254H11.1394V5.58191H18.5738V20.4263H22.2788V5.58191Z" fill="#2F766B"/>
</svg>
